<svg width="2848" height="656" viewBox="0 0 2848 656" fill="none" xmlns="http://www.w3.org/2000/svg">
<path d="M459.353 305.256L445.281 320.419V321.797M459.353 305.256L464.044 317.662M459.353 305.256H468.735M485.153 305.256L483.98 269.416M485.153 305.256L485.955 323.175M485.153 305.256H478.117M483.98 269.416L486.326 263.903L483.98 259.767H472.253M483.98 269.416H481.57M479.289 106.761L480.643 155.006M479.289 106.761L481.049 96.4228M479.289 106.761H492.189L500.398 104.004L502.744 96.4228M563.725 51.6237V40.5962H547.307V32.3256H543.789L542.616 50.2452H527.371V62.6512L519.162 73.6786H499.226V86.0846H482.808L481.049 96.4228M563.725 51.6237H582.488M563.725 51.6237L550.825 68.1649M582.488 51.6237V44.7315H597.734L601.252 35.0825L602.424 22.6765H611.806L643.469 25.4334L639.951 44.7315M582.488 51.6237L597.734 62.6512V66.7865M582.488 51.6237H600.079L600.837 62.6512L624.706 61.2727M639.951 44.7315H646.988L649.333 55.759H661.06L671.615 61.2727L684.514 70.9218L685.687 152.249M639.951 44.7315L617.67 46.1099L628.224 68.1649L651.678 70.9218M685.687 152.249L673.96 147.897M685.687 152.249H697.414M785.368 152.249L808.822 153.628M785.368 152.249H778.332M785.368 152.249V108.14M795.922 101.247L785.368 105.383V108.14M795.922 101.247L799.44 92.9767H815.858M795.922 101.247L815.858 102.626M821.722 92.9767H815.858M821.722 92.9767H828.758V102.626L845.176 104.004L845.616 108.14M821.722 92.9767L824.899 88.6199M839.313 69.5433L842.831 53.0021H848.694L851.04 68.1649L865.112 73.6786L863.94 88.8414M839.313 69.5433H834.036M839.313 69.5433L834.036 81.1856V69.5433M839.313 69.5433V80.5708M863.94 88.8414L872.149 92.9767V99.8689M863.94 88.8414V94.3552L854.558 92.9767L854.522 93.3565M872.149 99.8689L878.012 98.4905L878.081 98.129M872.149 99.8689L870.976 109.518H851.04M880.358 86.0846L894.43 80.5708L895.603 72.3002H910.848M880.358 86.0846L878.081 98.129M880.358 86.0846L921.403 83.3277V135.708M922.575 64.0296L914.366 72.3002H910.848M922.575 64.0296L920.23 47.4884L924.921 47.6662M922.575 64.0296L928.439 65.0899M957.757 64.0296L956.584 48.8668L950.721 48.6445M957.757 64.0296L965.966 69.5433L966.971 73.6786M957.757 64.0296H953.066M1045.71 35.0825L1030.47 37.8393L1023.43 47.4884L1003.49 50.2452V58.5159L987.075 61.2727L985.902 79.1924H984.729M1045.71 35.0825L1069.16 36.4609L1093.79 51.6237L1109.62 64.0296M1045.71 35.0825L1060.96 61.2727M1114.9 68.1649L1114.34 37.8393L1127.8 28.1903H1153.6M1114.9 68.1649L1109.62 64.0296M1114.9 68.1649L1114.39 123.302M1153.6 28.1903H1166.5L1172.36 40.5962V215.658M1153.6 28.1903L1154.35 18.5412M1417.46 141.222C1415.12 141.222 1409.02 141.222 1403.39 141.222L1408.08 90.2199L1392.83 75.0571L1379.93 65.408L1368.21 59.8943L1331.85 57.1374C1329.51 60.8132 1324.58 68.1649 1323.64 68.1649C1322.71 68.1649 1311.53 72.7597 1306.05 75.0571L1287.29 81.9493C1287.19 87.3135 1287.05 94.1204 1286.92 101.247M1417.46 141.222L1419.81 120.545L1437.4 121.924L1438.57 55.759L1462.02 54.3805M1417.46 141.222H1462.02L1459.68 157.763L1465.54 166.034L1459.68 188.089V236.334H1503.07V228.063H1494.86V55.759L1462.02 54.3805M1462.02 54.3805L1484.31 30.9471H1517.14L1527.7 35.0825L1546.46 47.4884L1554.67 59.8943L1566.4 62.6512L1568.74 97.112M1568.74 97.112L1595.71 77.814H1632.07L1640.28 90.2199L1661.39 101.247L1669.59 105.383L1664.9 157.763L1686.01 160.52H1717.68M1568.74 97.112H1600.4L1603.92 168.791L1568.74 167.412V97.112ZM1717.68 160.52L1716.5 80.5708M1717.68 160.52L1742.3 193.603L1745.82 241.848L1727.06 250.118L1730.58 353.501H1761.07L1757.55 257.011L1761.07 248.74L1778.66 245.983L1772.79 239.091V81.9493L1716.5 80.5708M1716.5 80.5708L1737.61 66.7865L1759.89 51.6237L1790.38 57.1374H1800.94L1804.46 69.5433C1808.76 70.0028 1817.59 71.1975 1818.53 72.3002C1819.47 73.403 1821.27 80.1113 1822.05 83.3277C1825.96 84.2467 1834.01 86.0846 1834.95 86.0846C1836.12 86.0846 1844.33 87.463 1845.5 87.463C1846.67 87.463 1858.4 97.112 1859.57 98.4905C1860.75 99.8689 1867.78 105.383 1867.78 106.761C1867.78 107.864 1878.73 112.734 1884.2 115.032L1888.89 123.302H1895.93V146.736L1906.48 156.385L1912.35 142.6L1919.38 132.951L1927.59 142.6L1939.32 146.736L1941.66 155.006C1940.88 158.682 1939.32 166.585 1939.32 168.791C1939.32 170.996 1940.1 174.304 1940.49 175.683L1965.12 174.304M1965.12 174.304L1961.6 98.4905M1965.12 174.304L1988.57 182.575V258.389L1972.15 257.011V266.66H2008.51V257.011H2023.75V247.362H2017.89V97.112L1961.6 98.4905M1961.6 98.4905L1999.13 92.9767L2008.51 75.0571L2028.45 72.3002C2032.75 74.5976 2041.58 79.1924 2042.52 79.1924C2043.69 79.1924 2049.55 86.0846 2051.9 88.8414C2054.24 91.5983 2060.11 97.112 2061.28 97.112C2062.45 97.112 2069.49 98.4905 2070.66 98.4905C2071.6 98.4905 2074.18 99.4094 2075.35 99.8689V123.302L2084.74 127.438L2094.12 132.951L2101.15 135.708L2099.98 188.089L2185.59 185.332M2185.59 185.332L2196.14 188.089L2197.32 207.387L2206.7 211.522L2207.87 223.928L2210.22 261.146V294.228L2197.32 291.471L2196.14 306.634L2202.01 316.283L2196.14 324.554V367.285M2185.59 185.332V117.789M2185.59 112.275L2210.22 101.247L2227.81 92.9767L2246.57 91.5983L2258.3 97.112L2270.02 106.761L2272.37 116.41L2286.44 119.167H2289.96V193.603L2295.82 200.495H2379.09M2185.59 112.275L2230.15 109.518L2236.02 115.032M2185.59 112.275V117.789M2379.09 200.495L2376.74 128.816L2390.81 126.059L2396.68 122.613M2379.09 200.495V245.983L2390.81 257.011L2393.16 290.093L2399.02 303.877L2393.16 305.256L2390.81 316.283L2400.2 324.554L2393.16 325.932L2391.99 331.446L2399.02 345.23L2391.99 343.852L2395.5 352.123L2397.85 360.393L2403.71 361.772L2408.4 353.501H2429.51L2433.03 128.816L2427.17 128.957M2495.19 367.285L2498.43 274.93M2495.19 367.285V374.178M2495.19 367.285H2210.22M2495.19 394.854H2413.1L2411.92 376.934L2495.19 374.178M2495.19 394.854V374.178M2495.19 394.854L2495.42 400.368M2510.43 432.072V422.423H2496.36L2496.3 421.044M2510.43 432.072H2495.19V441.721L2512.78 443.099L2510.43 452.748H2492.84L2496.36 472.047H2512.78L2510.43 480.317L2494.01 481.696L2492.84 507.886H2472.9L2465.87 527.184L2441.24 524.427L2427.17 527.184L2399.02 542.347L2376.74 545.104L2382.6 535.455L2363.84 507.886L2345.08 524.427L2339.8 503.751M2510.43 432.072H2545.61L2566.72 430.693H2591.35L2606.59 433.45L2612.46 429.315H2632.39V433.45H2655.85L2659.37 452.748H2668.75L2671.09 433.45L2685.17 432.072L2699.24 433.45L2701.58 441.721V456.884H2716.83L2718 436.207L2741.46 429.315L2754.36 419.666C2757.48 413.233 2764.21 400.368 2766.08 400.368C2767.96 400.368 2787.97 402.206 2797.75 403.125C2800.48 402.206 2806.19 399.816 2807.13 397.611C2808.3 394.854 2816.51 379.691 2817.68 375.556C2818.62 372.248 2823.55 364.988 2825.89 361.772H2847M1888.89 578.186L1902.96 600.241L1914.69 612.647L1941.66 637.459L1956.91 609.89L1981.54 578.186L1999.13 583.7C2005.38 585.078 2018.36 587.835 2020.24 587.835C2022.58 587.835 2042.52 600.241 2051.9 600.241C2059.4 600.241 2062.84 596.565 2063.63 594.727L2056.59 569.915H2075.35L2109.36 600.241L2141.03 578.186C2140.24 576.348 2137.74 572.121 2133.99 569.915C2129.3 567.159 2128.13 565.78 2123.43 560.266C2118.74 554.753 2119.92 550.617 2121.09 545.104C2122.26 539.59 2126.95 542.347 2133.99 542.347C2139.62 542.347 2141.03 542.347 2141.03 542.347C2143.37 538.671 2146.65 528.838 2141.03 518.913C2138.21 516.708 2137.09 515.164 2136.52 513.4M1888.89 578.186L1867.78 587.835C1866.89 589.942 1865.03 594.144 1863.37 597.484M1888.89 578.186H1879.51L1737.61 583.7M1737.61 583.7L1751.68 594.727C1753.58 595.955 1756.03 597.482 1758.72 599.089M1737.61 583.7C1736.98 583.824 1736.15 584.124 1735.27 584.65M1593.37 589.214L1602.75 600.241L1612.13 611.958M1593.37 589.214C1589.85 595.187 1582.34 608.236 1580.47 612.647C1578.59 617.058 1573.43 625.512 1571.09 629.188C1568.74 631.486 1563.58 635.805 1561.7 634.702C1559.36 633.323 1541.77 626.431 1539.42 626.431C1537.08 626.431 1527.7 629.188 1525.35 631.945C1523.47 634.151 1516.75 634.702 1513.62 634.702L1497.21 629.188H1487.82C1484.31 633.323 1476.57 642.697 1473.75 647.108C1470.94 651.519 1463.2 653.541 1459.68 654C1449.91 644.81 1429.89 626.431 1428.02 626.431M1593.37 589.214L1735.27 584.65M1428.02 626.431C1426.14 626.431 1410.82 624.593 1403.39 623.674L1382.28 614.025C1379.15 608.512 1372.43 597.208 1370.55 596.106M1428.02 626.431L1569.91 619.539L1585.16 596.106V587.835L1370.55 596.106M1370.55 596.106C1368.68 595.003 1352.57 598.403 1344.75 600.241H1331.85L1329.51 569.915L1316.28 600.241M1133.66 540.968L1127.8 579.564L1139.53 575.179M1133.66 540.968L1106.69 553.374V530.027M1133.66 540.968V367.285H1137.18M1093.79 521.67H1106.69V530.027M1093.79 521.67L1089.66 531.39M1093.79 521.67V503.121M704.451 489.256L695.069 488.588L675.133 486.55M704.451 489.256L709.141 495.48M704.451 489.256L733.768 489.579M704.451 489.256L703.278 473.425M615.324 463.776H652.851L656.369 474.803L668.096 485.831M615.324 463.776L590.697 483.419M615.324 463.776H567.243M582.488 489.966L583.379 489.256M447.626 349.366H442.935V361.772H451.144L452.317 382.448L437.072 383.827L439.417 392.097H452.317V412.774H438.244V421.982L451.144 422.242V434.829H437.072V441.721H451.144L452.317 449.992H437.072V459.641L452.317 458.262V470.668H437.072V478.939H452.317V488.588L459.353 489.256L458.181 480.317L485.153 481.696V489.256L519.162 489.966V509.264L529.716 503.751L557.861 505.129L570.761 499.615L583.379 489.256M447.626 349.366H432.381L427.69 430.693L406.581 426.558C401.89 425.18 392.04 422.423 390.163 422.423C387.818 422.423 360.845 426.558 359.673 430.693C358.5 434.829 350.291 449.992 342.082 448.613C333.873 447.235 313.937 443.099 309.246 438.964C304.555 434.829 290.482 422.423 281.101 426.558C273.595 429.866 256.865 438.045 249.437 441.721C245.528 436.667 237.476 424.904 236.538 418.288C235.365 410.017 210.738 404.503 209.565 404.503C208.392 404.503 195.493 392.097 187.284 392.097C179.075 392.097 159.138 385.205 153.275 385.205C147.411 385.205 123.957 386.584 123.957 382.448C123.957 378.313 102.848 361.772 96.9846 361.772C91.121 361.772 72.3576 353.501 71.1849 349.366C70.0122 345.23 61.8032 336.96 53.5942 336.96C45.3852 336.96 17.24 339.717 13.7219 341.095C10.9074 342.198 4.73458 341.555 2 341.095L3.16746 327.311H23.1036V306.634L50.076 309.391L58.285 299.742L67.6667 309.391L73.5303 295.607H93.4665L105.194 288.715L123.957 284.579H155.62V270.795H184.938V284.579H206.047L222.465 270.795L238.883 288.715V302.499H245.919V280.444H264.683V302.499H302.21H380.781V345.23H412.445C412.836 337.879 413.852 323.451 414.79 324.554C415.728 325.657 435.508 325.932 445.281 325.932V321.797M447.626 349.366L487.498 357.636M671.615 218.414L612.979 212.901M671.615 218.414L671.524 225.307M671.615 218.414L675.133 218.288M668.096 485.831L668.495 455.505M668.096 485.831L675.133 486.55M612.979 212.901H597.734V174.304M612.979 212.901V222.55M499.226 88.8414L521.507 86.0846M521.507 86.0846L550.825 88.8414M521.507 86.0846L521.01 160.52M550.825 88.8414V68.1649M550.825 88.8414V126.059M550.825 68.1649L597.734 66.7865M543.789 222.55H521.507V207.387H510.953V222.55H506.262M543.789 222.55L545.068 219.793M543.789 222.55L535.58 208.765M479.289 235.042L464.044 247.362H459.353M479.289 235.042L482.808 232.199L482.594 224.581M479.289 235.042L485.153 222.55H490.43M487.498 357.636H493.362M487.498 357.636L492.189 327.311L489.844 320.419L490.43 313.526L489.844 269.416H496.88M487.498 357.636L485.955 323.175M611.806 317.662V313.526M611.806 317.662H607.115M611.806 317.662L612.33 354.289H616.497L615.437 317.662M612.979 308.013L611.806 313.526M612.979 308.013H612.33M612.979 308.013L616.497 309.391V290.093H620.015V310.77H630.57V305.256H639.951V285.238M611.806 284.579L596.561 287.336L596.092 295.607M611.806 284.579V262.524M611.806 284.579L639.951 285.238M611.806 262.524L596.561 261.146L597.255 248.091M611.806 262.524L612.33 248.091H597.255M611.806 262.524L627.733 263.095M612.979 239.091H597.734L597.255 248.091M612.979 239.091L641.691 240.448M612.979 239.091V230.82M663.406 143.979L654.024 135.708M663.406 143.979L672.787 147.461L673.96 147.897M663.406 143.979L666.924 153.628M654.024 135.708H631.742M654.024 135.708L653.525 121.924M631.742 135.708V143.979L625.879 143.504M631.742 135.708L631.039 121.924M597.734 141.222V66.7865M597.734 141.222V160.52M597.734 141.222L600.665 141.46M550.825 357.636H594.215L597.178 335.581M550.825 357.636V335.581H543.202M550.825 357.636H543.202M493.362 357.636V335.581H501.571M493.362 357.636H501.571M493.362 452.748H505.089V444.478H523.853V452.748H508.607V461.019H523.853L521.507 478.939L507.435 476.182L491.017 472.047L493.362 451.37M583.379 489.256L590.697 483.419M567.243 462.397V463.776M590.697 483.419L567.243 484.452V463.776M570.761 430.693V432.072M668.495 455.505L668.822 430.693M668.495 455.505L590.697 453.311M570.761 432.072V452.748L590.697 453.311M570.761 432.072L668.822 430.693M668.822 430.693L668.949 421.044M668.949 421.044L594.215 419.019M668.949 421.044L668.975 419.019M669.239 398.989H567.243V408.638M669.239 398.989L669.366 389.34M669.239 398.989L668.975 419.019M669.366 389.34H652.851M669.366 389.34L669.457 382.448M669.366 389.34L680.41 389.643M569.588 365.907V381.07L567.243 382.448V389.34H583.661M569.588 365.907L583.661 367.285V389.34M569.588 365.907L594.746 366.6M669.638 368.664L670.073 335.581M669.638 368.664L651.863 368.174M669.638 368.664L669.457 382.448M671.306 241.848L641.691 240.448M671.306 241.848L671.343 239.091M671.306 241.848L671.191 250.657M671.006 264.644L670.726 285.958M671.006 264.644L658.715 264.204M671.006 264.644L671.191 250.657M670.726 285.958L639.951 285.238M670.726 285.958L670.447 307.173M611.806 313.526L615.324 313.776M669.638 317.662L651.863 316.364L643.469 315.77M545.068 219.793L550.825 207.387V167.412M545.068 219.793C545.921 219.793 550.825 225.307 553.17 228.063L547.307 235.042L503.916 233.577M495.707 178.44L520.334 177.061L520.899 177.182M495.707 178.44L489.844 177.182V172.926H494.535L493.362 106.761M495.707 178.44V181.197M501.571 199.116V208.765M501.571 222.55H506.262M501.571 222.55V208.765M501.571 222.55H490.43M507.435 199.116L506.262 222.55M508.607 88.8414L508.204 96.4228M501.571 178.44C501.571 167.412 501.571 145.082 501.571 143.979C501.571 142.6 501.571 120.545 502.744 119.167C503.682 118.064 506.262 113.194 507.435 110.896L508.204 96.4228M520.899 177.182L533.234 179.818L525.025 185.332C519.944 185.332 509.546 185.332 508.607 185.332C507.669 185.332 499.617 184.413 495.707 183.953V181.197M520.899 177.182L520.923 173.644M542.616 88.8414L543.172 126.059M543.789 167.412L536.752 160.52H530.889M543.789 167.412L543.686 160.52M543.789 167.412H550.825M543.789 167.412L542.616 179.818M521.01 160.52H522.68M521.01 160.52L520.923 173.644M537.925 189.467L535.58 208.765M535.58 208.765H545.068L546.134 200.495H542.616L541.443 196.359L547.307 192.224L542.616 185.332V179.818M561.379 218.414H590.697M564.898 268.038H588.352M561.379 315.594H587.179M651.678 70.9218L648.16 55.759M651.678 70.9218L652.577 95.7336M628.224 66.7865L629.631 94.3552M629.631 94.3552L652.577 95.7336M629.631 94.3552L631.039 121.924M652.577 95.7336L653.525 121.924M631.039 121.924H653.525M603.597 141.697L604.77 97.112L612.979 76.4355L624.706 80.5708L625.879 143.504M603.597 141.697L604.77 141.792L614.152 142.553M603.597 141.697L600.665 141.46M625.879 143.504L614.152 142.553M614.152 142.553L619.429 151.536M597.734 174.304V160.52M597.734 174.304H608.288M3.16746 214.279L59.4577 177.061L87.6029 159.142L134.511 143.979C154.057 143.979 193.851 143.979 196.665 143.979C199.48 143.979 255.692 143.979 283.446 143.979L302.21 148.114L301.037 139.844L296.346 127.438H301.037L303.382 123.302H306.9L310.419 124.681L311.591 127.438H316.282L317.455 131.573C316.673 132.951 314.875 135.708 313.937 135.708C312.999 135.708 310.419 137.546 309.246 138.465L310.419 148.114L337.391 143.979L356.154 148.114C364.363 148.114 381.016 148.114 381.954 148.114C383.127 148.114 398.372 146.736 401.89 146.736C405.408 146.736 422.999 148.114 424.172 148.114C425.345 148.114 445.281 148.114 446.453 149.493C447.626 150.871 460.526 156.385 461.699 157.763C462.637 158.866 467.562 163.736 469.908 166.034M469.908 166.034L471.08 161.209M469.908 166.034L469.405 170.169M480.643 155.006L472.253 156.385L471.08 161.209M480.643 155.006L481.57 188.089M2498.43 274.93L2499.88 233.577L2481.11 230.82C2480.72 221.631 2479.94 202.7 2479.94 200.495C2479.94 197.738 2479.94 175.683 2479.94 172.926C2479.94 170.169 2481.11 150.871 2482.29 146.736C2483.22 143.427 2480.33 135.249 2478.77 131.573L2462.35 126.059C2463.13 123.762 2464.93 118.891 2465.87 117.789C2466.81 116.686 2459.22 111.815 2455.31 109.518H2441.24C2438.9 105.842 2433.97 98.4905 2433.03 98.4905C2432.09 98.4905 2424.04 97.5715 2420.13 97.112V106.761L2407.23 116.41L2396.68 122.613M2498.43 274.93H2540.92H2573.76L2601.9 277.687L2625.36 279.066L2655.85 277.687L2675.78 272.173L2703.93 274.93C2713.31 275.849 2732.78 277.687 2735.59 277.687C2739.11 277.687 2776.64 274.93 2778.98 274.93C2780.86 274.93 2792.27 272.173 2797.75 270.795H2828.24L2847 272.173M563.725 172.926L587.179 174.304M563.725 110.896H584.834M501.571 247.362H495.707V257.011M501.571 247.362V269.416M501.571 247.362H508.607M501.571 269.416H515.644M501.571 269.416H496.88M508.607 247.362V268.038M508.607 247.362H515.644M515.644 247.362V269.416M515.644 247.362H522.68M515.644 269.416H522.68M522.68 269.416V247.362M522.68 269.416H530.889M522.68 247.362H530.889M530.889 247.362V269.416M530.889 247.362H537.925M530.889 269.416H537.925M537.925 269.416V247.362M537.925 269.416H544.375M537.925 247.362H544.375M544.375 247.362H550.825V269.416H544.375M544.375 247.362V269.416M499.226 288.715H493.362V313.526H499.226M499.226 288.715V313.526M499.226 288.715H507.435M499.226 313.526H507.435M507.435 313.526V288.715M507.435 313.526H517.989M507.435 288.715H517.989M517.989 288.715V313.526M517.989 288.715H527.371M517.989 313.526H527.371M527.371 313.526V288.715M527.371 313.526H536.752M527.371 288.715H536.752M536.752 288.715H550.825V313.526H536.752M536.752 288.715V313.526M501.571 335.581V357.636M501.571 335.581H509.78M501.571 357.636H509.78M509.78 357.636V335.581M509.78 357.636H518.395M509.78 335.581H518.395M518.395 335.581V357.636M518.395 335.581H527.371M518.395 357.636H527.371M527.371 357.636V335.581M527.371 357.636H535.58M527.371 335.581H535.58M535.58 335.581V356.258V357.636M535.58 335.581H543.202M535.58 357.636H543.202M543.202 357.636V335.581M535.58 397.942L528.543 398.218V421.32H535.58M535.58 397.942V421.32M535.58 397.942L541.443 398.218M535.58 421.32L541.443 421.596M541.443 421.596V398.218M541.443 421.596H549.652M541.443 398.218L549.652 398.603M549.652 398.603L557.861 398.989V421.596H549.652M549.652 398.603V421.596M500.398 394.854H493.362L492.189 416.909L499.226 417.24M500.398 394.854L499.226 417.24M500.398 394.854H510.953M499.226 417.24L510.366 417.764M510.366 417.764L521.507 418.288V394.854H510.953M510.366 417.764L510.953 394.854M536.752 430.693H527.371V452.748L536.752 453.565M536.752 430.693V453.565M536.752 430.693H549.652M536.752 453.565H559.034L557.861 430.693H549.652M550.825 454.127L549.652 430.693M535.58 462.091L528.543 462.397V484.452H535.58M535.58 462.091V484.452M535.58 462.091L546.134 462.397M535.58 484.452H546.134M546.134 484.452H560.207L559.034 462.397H546.134M546.134 484.452V462.397M535.58 364.529H530.889H527.371V389.953H535.58M535.58 364.529V389.953M535.58 364.529H549.652M535.58 389.953H549.652M549.652 389.953H559.034V364.529H549.652M549.652 389.953V365.907V364.529M459.836 371.421L460.526 385.205L487.498 386.584V372.799M459.836 371.421L459.353 361.772L487.498 364.529V372.799M459.836 371.421L487.498 372.799M478.117 392.097H485.153V414.152H478.117M478.117 392.097V414.152M478.117 392.097H468.735M478.117 414.152H469.321M465.217 422.082L459.353 421.982L459.836 444.478H465.217M465.217 422.082V444.478M465.217 422.082L474.599 422.242M465.217 444.478H475.185M475.185 444.478H485.153V422.423L474.599 422.242M475.185 444.478L474.599 422.242M465.217 452.748H459.353V472.047H465.217M465.217 452.748V472.047M465.217 452.748H478.117M465.217 472.047H479.289M479.289 472.047H487.498V452.748H478.117M479.289 472.047L478.117 452.748M469.321 414.152H460.526V392.097H468.735M469.321 414.152L468.735 392.097M481.049 96.4228H502.744M508.204 96.4228H502.744M495.707 181.197H487.498L486.326 189.467L494.808 192.224M494.808 192.224C495.095 190.727 495.434 189.212 495.707 188.089L536.752 189.467C535.189 192.224 531.827 197.738 530.889 197.738C529.951 197.738 529.716 197.738 529.716 197.738C525.416 198.197 516.347 199.116 514.471 199.116C512.125 199.116 495.707 197.738 494.535 197.738C494.264 197.738 494.182 197.201 494.222 196.359M494.808 192.224C494.511 193.775 494.271 195.306 494.222 196.359M494.222 196.359H487.498V206.008L490.43 207.387M501.571 208.765H493.362L490.43 207.387M490.43 207.387V222.55M522.68 160.52L530.889 174.304M522.68 160.52H530.889M530.889 174.304L520.923 173.644M530.889 174.304L538.864 173.644M530.889 160.52L538.864 173.644M542.616 179.818L538.864 173.644M543.172 126.059H550.825M543.172 126.059L543.274 132.951M550.825 126.059V132.951M543.274 132.951H550.825M543.274 132.951L543.377 139.844M550.825 132.951V139.844M543.377 139.844H550.825M543.377 139.844L543.48 146.736M550.825 139.844V146.736M543.48 146.736H550.825M543.48 146.736L543.583 153.628M550.825 146.736V153.628M543.583 153.628H550.825M543.583 153.628L543.686 160.52M550.825 153.628V160.52M543.686 160.52H550.825M550.825 160.52V167.412M509.78 161.899L512.125 170.169M516.816 161.899L517.989 168.791M505.089 163.277L507.435 170.169M469.908 211.522L461.699 212.901L462.871 218.414L468.735 225.307H462.871V230.82L467.562 233.577L459.353 247.362M469.908 211.522V204.63M469.908 211.522L482.247 212.222M459.353 247.362H442.935V252.875M471.08 161.209L480.643 166.034L481.112 177.182M481.57 188.089L469.908 182.575M481.57 188.089L481.112 177.182M481.57 188.089L481.918 200.495M469.908 182.575V179.818H462.871L461.699 175.683H468.735L469.405 170.169M469.908 182.575V194.981M469.405 170.169L481.112 177.182M469.908 194.981V204.63M469.908 194.981L481.918 200.495M469.908 204.63L482.247 212.222M481.918 200.495L482.247 212.222M482.247 212.222L482.594 224.581M469.908 225.307L482.594 224.581M442.935 252.875V258.389L453.49 269.416H459.353M442.935 252.875H481.57L485.153 247.362L487.498 257.011L494.808 256.494L495.707 257.011M495.707 257.011V269.416H496.88M445.281 259.767H452.317M452.317 259.767L459.353 269.416M452.317 259.767H462.871M459.353 269.416H468.735M462.871 259.767L468.735 269.416M462.871 259.767H472.253M468.735 269.416H476.944M472.253 259.767L476.944 269.416M476.944 269.416H481.57M479.289 261.146L481.57 269.416M445.281 321.797H453.49V316.283L457.008 317.662L460.526 323.175L464.044 317.662M464.044 317.662H467.562V323.175H472.253V317.662M472.253 317.662H476.944V323.175H481.635M472.253 317.662L468.735 305.256M485.955 323.175H481.635M468.735 305.256H478.117M478.117 305.256L481.635 323.175M595.388 349.366L596.872 337.863L597.178 335.581M627.733 263.095V250.657M627.733 263.095L641.691 263.594M641.691 263.594V240.448M641.691 263.594L658.715 264.204M658.715 264.204V241.848M596.092 295.607L595.388 308.013H612.33M596.092 295.607L612.33 296.143V308.013M655.197 285.958V306.634L670.447 307.173M670.447 307.173L670.194 326.394M612.979 222.55L671.524 225.307M612.979 222.55V230.82M671.524 225.307L671.415 233.577M612.979 230.82L671.415 233.577M671.415 233.577L671.343 239.091M597.178 335.581L597.734 331.446L598.906 317.662H607.115M597.178 335.581H602.424V353.501H607.115V317.662M615.324 313.776L615.437 317.662M615.324 313.776L643.469 315.77M615.437 317.662L639.951 319.04L643.469 315.77M670.194 326.394H624.706L625.879 335.581H639.951M670.194 326.394L670.073 335.581M670.073 335.581H646.988M639.951 335.581H646.988M639.951 335.581V343.852M639.951 357.636H646.988V335.581M639.951 357.636V343.852M639.951 357.636V360.393H632.915V343.852H639.951M583.661 389.34H595.388M595.388 389.34L594.746 366.6M595.388 389.34H609.461M594.746 366.6L609.461 367.006M609.461 367.006V389.34M609.461 367.006L624.706 367.426M609.461 389.34H624.706M624.706 389.34V367.426M624.706 389.34H637.101M624.706 367.426L637.101 367.767M637.101 367.767V389.34M637.101 367.767L651.863 368.174M637.101 389.34H652.851M652.851 389.34L651.863 368.174M567.243 408.638V418.288L594.215 419.019M567.243 408.638H582.488V415.531H594.215V419.019M583.661 431.891L590.697 440.342V453.311M597.734 160.52H608.288M624.706 160.52H616.497M624.706 160.52L619.429 151.536M624.706 160.52H638.779V152.249M607.115 141.792L616.497 160.52M616.497 160.52H608.288M616.497 160.52V174.304M600.665 141.46L608.288 160.52M608.288 160.52V174.304M619.429 151.536L638.779 152.249M638.779 152.249L641.691 152.392M666.924 153.628L677.478 155.006L673.96 147.897M666.924 153.628L649.333 152.766M637.606 143.979L641.691 152.392M641.691 152.392L649.333 152.766M644.642 143.979L649.333 152.766M648.16 153.628L654.024 161.899L671.615 163.277H680.996M680.996 163.277L689.205 164.655H702.105M680.996 163.277V170.169L682.169 171.548H716.178L718.523 172.926L719.696 196.359H713.832V186.71L711.487 178.44H707.969L689.205 177.061L683.342 178.44L682.169 182.575L684.514 186.71H689.205H695.069H707.969V194.981L703.278 199.116M724.387 167.412L723.214 164.655H709.141M724.387 167.412V170.169M724.387 167.412L732.596 164.655H738.459M724.387 170.169V181.197V183.953L731.423 182.575L733.768 186.71L737.287 189.467L739.632 182.575L743.15 177.061L739.632 172.926H730.25L724.387 170.169ZM747.841 164.655H741.977H738.459M747.841 164.655L751.359 170.169C750.577 172.007 749.014 175.683 749.014 175.683V179.818M747.841 164.655L752.532 164.833M741.977 200.495L743.15 190.846L749.014 183.953V179.818M741.977 200.495L743.15 208.765H713.832M741.977 200.495H770.123L772.468 193.603H787.713H802.959L814.686 196.359M713.832 208.765L705.623 206.008L703.278 199.116M713.832 208.765L702.105 210.144V217.319M703.278 199.116H692.723L684.514 201.873L671.415 200.495L664.578 201.873L665.751 207.387H683.342V212.901L675.133 218.288M697.414 152.249L702.105 164.655M697.414 152.249H719.696M702.105 164.655H709.141M705.623 152.766L709.141 164.655M637.606 201.873V214.279M642.297 203.252V214.279M646.988 204.63V215.658M617.67 190.846V212.901M622.361 174.304H616.497M616.497 174.304H608.288M675.133 218.288L702.105 217.319M702.105 217.319L770.123 214.876M719.696 152.249L723.214 164.101M719.696 152.249H733.768M733.768 152.249L738.459 164.655M733.768 152.249H744.323M820.549 167.412L819.377 163.277L808.822 161.899V153.628M820.549 167.412L783.022 165.989M820.549 167.412L815.858 172.926M808.822 153.628L817.031 156.385L826.413 155.696M744.323 152.249L752.532 164.833M744.323 152.249H761.914M752.532 164.833L770.123 165.5M761.914 152.249L770.123 165.5M761.914 152.249H778.332M770.123 165.5L783.022 165.989M778.332 152.249L783.022 165.989M792.404 153.628L799.44 167.412M814.686 196.359L815.858 172.926M814.686 196.359L820.549 201.873L817.031 206.008H770.123V214.876M815.858 172.926H801.786H794.75V177.061L805.304 178.44L807.649 185.332H790.059H768.95L763.086 181.197L749.014 179.818M873.321 152.766C872.383 152.766 869.022 154.26 867.458 155.006L864.526 161.899M873.321 152.766C874.26 152.766 879.967 152.422 882.703 152.249M873.321 152.766H842.046M882.703 152.249C883.094 153.168 883.876 155.282 883.876 156.385C883.876 157.488 883.094 160.52 882.703 161.899C880.749 162.358 876.605 163.277 875.667 163.277C874.729 163.277 871.367 163.826 869.803 164.101V203.252L887.394 204.63V199.116H897.948M882.703 152.249L881.53 149.493M924.921 209.317L786.809 214.277M924.921 209.317L923.907 200.495M924.921 209.317L1036.33 205.315M770.123 214.876L786.809 214.277M841.658 205.498L829.931 206.008L827.586 200.495L828.758 193.603L831.104 183.953L826.413 182.575C826.022 181.197 825.24 178.164 825.24 177.061C825.24 175.683 827.586 172.926 827.586 171.548C827.586 170.445 829.149 167.412 829.931 166.034L839.313 165.5L840.485 157.763L835.795 155.006L826.413 155.696M841.658 205.498V190.846L839.313 186.71C838.922 185.332 838.14 182.299 838.14 181.197C838.14 180.094 838.922 177.061 839.313 175.683L841.658 170.169H846.349L848.694 178.44L847.522 185.332L858.076 186.71V204.783M841.658 205.498L858.076 204.783M858.076 204.783L861.594 204.63L863.94 199.954L862.767 175.683L862.983 173.401M815.858 92.9767V101.247H822.895L827.586 106.761L827.553 108.14M826.413 155.696L826.495 152.249M794.75 110.896L820.549 120.545M794.75 126.059L820.549 134.33M794.75 138.465L819.377 148.346M785.368 108.14H827.553M827.553 108.14L826.826 138.465M827.553 108.14H845.616M834.036 69.5433H828.758V83.3277L824.899 88.6199M851.04 117.789L849.867 105.383H851.04M851.04 117.789L846.349 115.032L845.616 108.14M851.04 117.789V138.465M842.831 88.8414L851.04 105.383M842.831 88.8414H852.213L854.522 93.3565M842.831 88.8414L824.899 88.6199M851.04 105.383H853.385L854.522 93.3565M878.081 98.129L876.924 135.708M876.84 138.465H859.249M876.84 138.465L876.924 135.708M876.84 138.465L878.599 142.6M826.826 138.465H836.967M826.826 138.465L836.967 152.766M826.826 138.465L826.495 152.249M836.967 138.465L846.349 153.628M836.967 138.465H848.694M848.694 138.465L855.731 152.766M848.694 138.465H851.04M859.249 138.465L867.458 152.249M859.249 138.465H851.04M836.967 152.766L826.495 152.249M836.967 152.766H842.046M842.046 152.766L849.867 168.791L856.903 167.412M856.903 167.412L853.385 156.385L864.526 161.899M856.903 167.412L862.983 173.401M864.526 161.899L863.94 163.277L862.983 173.401M876.924 135.708H888.567M921.403 135.708L933.13 131.573L941.339 117.789L942.512 134.33M921.403 135.708H913.194M921.403 135.708L934.303 134.866M910.848 72.3002V79.1924H921.403L923.357 73.6786L923.748 81.9493L942.512 83.3277M942.512 83.3277L944.857 79.1924L937.821 66.7865L934.303 66.1503M942.512 83.3277L946.03 99.8689L947.202 86.0846H949.548M924.921 47.6662L928.439 65.0899M924.921 47.6662L930.784 47.8886M928.439 65.0899L934.303 66.1503M930.784 47.8886L937.821 48.1554M930.784 47.8886L933.894 64.0296M934.303 66.1503L933.894 64.0296M937.821 48.1554L941.339 64.0296M937.821 48.1554L943.684 48.3777M941.339 64.0296H933.894M941.339 64.0296H947.202M943.684 48.3777L950.721 48.6445M943.684 48.3777L947.202 64.0296M950.721 48.6445L953.066 64.0296M953.066 64.0296H947.202M966.971 73.6786L968.311 79.1924H970.657M966.971 73.6786L954.239 75.0571L951.893 86.0846H949.548M888.567 95.7336L915.539 101.247M888.567 116.41L913.194 124.681M942.512 134.33L934.303 134.866M942.512 134.33L946.307 134.082M984.729 132.951V79.1924M984.729 132.951H971.829M984.729 132.951L987.075 141.222H991.766M984.729 79.1924H970.657M949.548 86.0846L949.58 88.8414M950.103 133.834L949.884 115.032M950.103 133.834L946.307 134.082M950.103 133.834L960.102 133.181M970.657 116.41L949.884 115.032M949.884 115.032L949.58 88.8414M970.657 79.1924L970.897 90.2199M971.829 132.951L970.897 90.2199M971.829 132.951H970.657M949.58 88.8414L970.897 90.2199M881.53 149.493L1007.01 150.871M881.53 149.493L878.599 142.6M1007.01 150.871V143.979L973.002 143.614M1007.01 150.871V152.939M878.599 142.6L890.912 142.733M888.567 135.708L890.912 142.733M888.567 135.708H900.88M890.912 142.733L903.226 142.865M913.194 135.708L915.539 142.997M913.194 135.708H900.88M915.539 142.997L903.226 142.865M915.539 142.997L940.166 143.261M900.88 135.708L903.226 142.865M934.303 134.866L936.648 142.6L940.166 143.261M940.166 143.261L950.103 143.368M946.307 134.082L950.103 143.368M950.103 143.368L963.62 143.513M912.021 178.44L908.503 177.061V171.548L913.194 170.169L912.588 168.791M912.021 178.44L912.901 182.575M912.021 178.44L917.885 177.061L919.057 179.818H924.921L926.094 177.061H941.339M897.948 199.116L893.258 190.846V183.953H913.194L912.901 182.575M897.948 199.116H900.88M900.88 199.116H904.985V203.252L915.539 204.63V199.116H923.748L923.907 200.495M900.88 199.116L897.948 189.467L912.021 190.846L924.921 189.467H943.684L1052.75 185.332H1082.06V179.818L912.901 182.575M1073.86 172.926L1072.13 164.101L1053.92 164.636M1073.86 172.926L1046.88 173.681M1073.86 172.926L1077.96 168.101M912.588 168.791L910.848 164.833L909.92 163.277M912.588 168.791L922.575 168.497M941.339 168.791V177.061M941.339 177.061H943.684L968.311 175.989M968.311 167.153V175.989M968.311 167.153L994.111 166.394M968.311 167.153L922.575 168.497M968.311 175.989L975.348 175.683L994.111 175.158M994.111 166.394V175.158M994.111 166.394L1017.57 165.705M994.111 175.158L1019.91 174.436M1019.91 165.636V174.436M1019.91 165.636L1017.57 165.705M1019.91 165.636L1028.12 165.395M1019.91 174.436L1046.88 173.681M1046.02 164.868L1046.88 173.681M1046.02 164.868L1037.07 165.132M1046.02 164.868L1039.85 152.655M1046.02 164.868L1053.92 164.636M909.92 163.277L904.985 155.006H1007.01V152.939M909.92 163.277H921.403L922.575 168.497M1007.01 152.939L1011.7 152.898M1086.76 152.249L1092.62 160.52L1082.06 163.277L1077.96 168.101M1086.76 152.249L1085.58 141.222L1043.37 142.6H1035.16M1086.76 152.249L1063.3 152.452M1004.67 156.385L1010.53 164.868M1011.7 152.898L1017.57 165.705M1011.7 152.898L1030.47 152.736M1022.26 152.939L1028.12 165.395M1028.12 165.395L1037.07 165.132M1030.47 152.736L1037.07 165.132M1030.47 152.736L1039.85 152.655M1039.85 152.655L1048.06 152.584M1048.06 152.584L1053.92 164.636M1048.06 152.584L1063.3 152.452M960.102 133.181L963.62 132.951H970.657M960.102 133.181L963.62 143.513M963.62 143.513L973.002 143.614M970.657 132.951L973.002 143.614M1003.49 134.866H1001.15L999.975 141.222H991.766M1003.49 134.866L1016.39 135.708M1003.49 134.866V117.789C1003.49 108.599 1003.26 89.9442 1002.32 88.8414C1001.86 88.306 1001.76 86.0158 1001.82 83.3277M1016.39 135.708V131.573H1010.53L1009.36 126.059H1018.74L1019.91 94.3552L1012.87 95.7336V121.924L1009.36 120.545V95.7336L1007.01 87.463V79.1924L1015.22 77.814V66.7865H1007.01L1002.32 75.0571C1002.12 77.1845 1001.88 80.4795 1001.82 83.3277M1016.39 135.708L1025.77 137.087L1029.29 143.614L1035.16 142.6M1001.82 83.3277L990.593 81.9493L989.42 86.0846L992.938 95.7336L995.284 123.302H990.593L989.42 127.438L991.766 133.834V141.222M1044.54 130.195H1035.16V101.247M1044.54 130.195L1043.37 137.087L1035.16 135.708V142.6M1044.54 130.195L1048.06 130.076M1062.13 142.6L1063.3 152.452M1023.43 131.573L1022.26 62.6512V57.1374H1030.47V62.6512H1025.77V101.247H1035.16M1035.16 101.247V61.2727H1060.96M671.343 239.091L685.687 238.846M787.713 237.103V258.389H780.677M787.713 237.103L780.677 237.223M787.713 237.103L786.809 214.277M787.713 237.103L786.801 514.778M685.687 263.095V268.038H675.133V273.562L680.41 273.433M685.687 263.095V250.97M685.687 263.095L698.587 263.331M756.504 285.958L758.395 276.309L768.95 271.258L747.841 271.776M756.504 285.958L762.727 286.233M756.504 285.958L753.705 286.006M783.544 513.4L760.741 503.751L763.086 496.858M783.544 513.4L781.85 507.886L785.368 499.615H775.986V495.48M783.544 513.4L786.801 514.778M763.086 496.858L757.223 496.709M763.086 496.858L763.953 495.839M709.141 495.48L710.314 509.264H726.732L723.214 495.839M709.141 495.48L723.214 495.839M723.214 495.839L732.596 496.079M749.014 496.858L741.977 510.643H751.359L757.223 496.709M757.223 496.709L744.909 496.394M732.596 496.079L736.114 506.507L744.909 496.394M732.596 496.079L744.909 496.394M675.133 486.55L675.389 483.074M688.033 467.911L676.305 470.668L675.389 483.074M688.033 467.911V461.019M688.033 467.911V473.425H696.242M688.033 451.37V461.019M780.677 237.223V258.389M780.677 237.223L772.468 237.363M780.677 258.389H772.468M772.468 237.363V258.389M772.468 237.363L760.741 237.564M772.468 258.389H771.295L770.123 264.644L760.741 264.472M760.741 237.564V264.472M760.741 237.564L750.186 237.744M760.741 264.472L750.186 264.278M750.186 264.278V237.744M750.186 264.278L740.805 264.106M750.186 237.744L740.805 237.904M740.805 237.904V264.106M740.805 237.904L731.423 238.065M740.805 264.106L731.423 263.934M731.423 263.934V238.065M731.423 263.934L724.973 263.815M731.423 238.065L725.559 238.165M718.523 263.697L724.973 263.815M718.523 263.697V250.801M718.523 263.697L708.555 263.514M725.559 238.165L718.523 237.904V250.801M725.559 238.165L724.973 263.815M725.559 238.165L685.687 238.846M685.687 238.846V250.97M671.191 250.657L685.687 250.97M685.687 250.97L698.587 250.904M718.523 250.801L708.555 250.852M698.587 263.331V250.904M698.587 263.331L708.555 263.514M698.587 250.904L708.555 250.852M708.555 263.514V250.852M685.687 273.303V280.444M685.687 273.303L693.896 273.101M685.687 273.303L680.41 273.433M693.896 273.101V280.444M693.896 273.101L705.623 272.813M705.623 272.813V280.444M705.623 272.813L720.869 272.439M720.869 272.439V280.444M720.869 272.439L731.423 272.18M731.423 272.18V280.444M731.423 272.18L739.632 271.978M739.632 271.978V279.066M739.632 271.978L747.841 271.776M747.841 271.776V279.066M680.41 273.433L676.305 287.336L689.792 287.104M777.159 286.87L787.713 287.336V308.346L773.641 308.478M777.159 286.87L774.813 295.607L773.641 308.478M777.159 286.87L768.95 286.507M773.641 308.478L768.95 308.522M768.95 286.507V308.522M768.95 286.507L762.727 286.233M768.95 308.522L762.727 308.58M762.727 286.233V308.58M762.727 308.58L747.841 308.72M753.705 286.006V308.013M753.705 286.006L747.841 286.107M747.841 286.107V308.72M747.841 286.107L740.513 286.233M747.841 308.72L740.805 308.786M740.513 286.233L740.805 308.786M740.513 286.233L732.596 286.369M740.805 308.786L732.596 308.863M732.596 286.369V308.863M732.596 286.369L723.825 286.519M732.596 308.863L703.278 309.138M723.825 286.519V308.013M723.825 286.519L711.487 286.731M711.487 286.731V308.013M711.487 286.731L703.278 286.873M703.278 286.873V309.138M703.278 286.873L689.792 287.104M703.278 309.138L689.792 309.265M689.792 287.104V309.265M689.792 309.265L676.305 309.391L677.478 319.04H768.95V323.432L760.741 323.409M685.687 323.192L679.824 323.175L672.787 334.538L677.478 334.581M685.687 323.192V327.311M685.687 323.192L692.723 323.213M692.723 323.213V327.311M692.723 323.213L704.451 323.246M704.451 323.246V327.311M704.451 323.246L719.696 323.29M719.696 323.29V328.689M719.696 323.29L732.596 323.328M732.596 323.328V327.311M732.596 323.328L739.632 323.348M739.632 323.348V328.689M739.632 323.348L760.741 323.409M746.668 323.432V328.689M760.741 323.409L755.825 335.3M755.825 335.3L786.453 335.581L786.631 346.609M755.825 335.3L677.478 334.581M677.478 334.581L676.305 348.856L786.631 346.609M786.631 346.609L786.809 357.636H685.687V361.772H673.96V367.426L679.824 368.174L680.41 368.172M680.41 368.172L786.453 367.767L786.541 385.205V392.097H771.295V401.746H779.052M680.41 368.172L678.651 378.313L669.457 382.448M770.123 392.097L765.432 391.969M779.052 401.746H786.809L786.541 426.558H779.504M779.052 401.746L779.504 426.558M779.504 426.558H771.295L765.432 426.472M765.432 391.969V426.472M765.432 391.969L757.223 391.744M765.432 426.472L757.223 426.351M757.223 391.744V426.351M757.223 391.744L750.186 391.552M757.223 426.351L750.186 426.248M750.186 391.552V426.248M750.186 391.552L741.977 391.327M750.186 426.248L741.977 426.127M741.977 391.327V426.127M741.977 391.327L730.25 391.006M741.977 426.127L730.25 425.955M730.25 391.006L713.832 390.557M730.25 391.006V410.017M730.25 425.955L713.832 425.714M730.25 425.955V410.017M713.832 390.557V408.135M713.832 390.557L703.278 390.268M713.832 425.714V408.135M713.832 425.714L703.278 425.559M713.832 408.135L719.696 408.638V398.989H724.973V410.017H730.25M703.278 390.268V425.559M703.278 390.268L695.069 390.044M703.278 425.559L695.069 425.438M695.069 390.044V425.438M695.069 390.044L688.033 389.851M695.069 425.438L677.478 425.18V430.693L680.996 432.761M688.033 389.851V425.714M688.033 389.851L680.41 389.643M680.41 389.643L680.727 408.135M680.996 423.801L680.727 408.135M680.727 408.135H676.305V419.019H668.975M680.996 432.761L684.514 434.829L680.996 443.099V451.37L696.242 451.802M680.996 432.761H689.796M770.123 432.761H727.905M689.796 432.761L693.896 438.964M689.796 432.761H702.105M702.105 432.761L705.623 438.964M702.105 432.761H716.178M716.178 432.761L720.869 440.342M716.178 432.761H727.905M727.905 432.761L732.596 440.342M736.114 437.586H746.668M757.223 438.964V453.529M757.223 453.529L743.15 453.13M757.223 453.529L763.086 453.695M766.604 438.964V444.478M688.033 461.019L696.242 461.43M743.15 463.776V453.13M743.15 463.776H768.95L761.914 463.365L763.086 453.695M743.15 463.776L741.977 463.717M743.15 453.13L734.941 452.898M696.242 451.802V461.43M696.242 451.802L704.451 452.034M696.242 461.43L704.451 461.84M696.242 461.43V473.425M704.451 452.034V461.84M704.451 452.034L718.523 452.433M704.451 461.84L718.523 462.544M704.451 461.84L703.278 473.425M718.523 452.433V462.544M718.523 452.433L726.732 452.665M718.523 462.544L726.732 462.955M718.523 462.544L726.732 463.776V473.425M718.523 462.544V473.425M726.732 452.665V462.955M726.732 452.665L734.941 452.898M726.732 462.955L733.768 463.307M734.941 452.898V463.365M734.941 463.365L733.768 463.307M734.941 463.365L741.977 463.717M763.086 453.695L778.332 454.127L779.504 434.829H786.453L786.809 459.641H770.123V467.911H774.813M733.768 473.425V489.579M733.768 473.425V463.307M733.768 473.425H726.732M733.768 489.579L740.805 489.656M726.732 473.425H718.523M718.523 473.425H703.278M703.278 473.425H696.242M696.242 473.425V484.452L675.389 483.074M741.977 463.717V474.803L746.668 475M774.813 467.911H786.453L786.809 491.345H775.986V495.48M774.813 467.911V476.182L746.668 475M746.668 475V481.696H740.805V489.656M740.805 489.656L768.95 489.966L763.953 495.839M763.953 495.839L775.986 495.48M794.75 214.277L794.914 232.948M798.268 517.535L806.477 503.751H814.686L820.549 507.886L826.826 518.913L831.104 505.129L839.313 506.507H847.522L841.658 517.535L855.731 520.292L885.049 523.049L888.179 524.245M798.268 517.535L790.059 516.156L786.801 514.778M798.268 517.535L797.186 491.345M794.914 232.948L795.145 259.199M794.914 232.948L810.999 233.228M795.145 259.199L812.949 258.784M795.145 259.199L795.369 284.657M801.786 233.577V258.389L812.949 258.784M812.949 258.784L810.999 233.228M812.949 258.784L821.44 258.587M810.999 233.228L831.104 233.577L829.931 258.389L825.686 258.488M821.44 258.587V233.577M821.44 258.587L825.686 258.488M838.14 261.146L839.313 232.948L847.522 232.831M838.14 261.146L847.522 260.963M838.14 261.146L825.686 258.488M847.522 260.963V232.831M847.522 260.963L855.731 260.803M847.522 232.831L855.731 232.713M855.731 232.713V260.803M855.731 232.713L864.526 232.588M855.731 260.803L864.526 260.631M864.526 260.631V232.588M864.526 260.631L873.321 260.46M864.526 232.588L873.321 232.462M873.321 232.462V260.46M873.321 232.462L882.703 232.328M873.321 260.46L882.703 260.277M882.703 260.277V232.328M882.703 260.277L889.165 260.151M882.703 232.328L888.567 232.244M888.567 232.244L889.165 260.151M888.567 232.244L896.776 232.126M889.165 260.151L906.157 259.82M897.948 260.631L896.776 232.126M896.776 232.126L906.157 231.992M906.157 231.992V259.82M906.157 231.992L915.539 231.858M906.157 259.82L915.539 259.637M915.539 259.637V231.858M915.539 259.637L924.921 259.454M915.539 231.858L923.748 231.74M923.748 231.74L924.921 259.454M923.748 231.74L933.13 231.606M924.921 259.454L934.303 259.271M934.303 259.271L933.13 231.606M934.303 259.271L942.512 259.111M933.13 231.606L941.339 231.489M941.339 231.489L942.512 259.111M941.339 231.489L950.721 231.354M942.512 259.111L951.893 258.928M951.893 258.928L950.721 231.354M951.893 258.928L961.275 258.745M950.721 231.354L960.102 231.22M960.102 231.22L961.275 258.745M960.102 231.22L968.311 231.103M961.275 258.745L969.484 258.585M969.484 258.585L968.311 231.103M969.484 258.585L980.038 258.379M968.311 231.103L978.866 230.952M978.866 230.952L980.038 258.379M978.866 230.952L991.766 230.767M980.038 258.379L992.938 258.128M992.938 258.128L991.766 230.767M992.938 258.128L1005.23 257.888M991.766 230.767L1004.67 230.583M1004.67 230.583L1005.23 257.888M1004.67 230.583L1021.08 230.348M1005.23 257.888L1022.26 257.556M1022.26 257.556L1021.08 230.348M1022.26 257.556L1031.64 257.374M1021.08 230.348L1030.47 230.214M1030.47 230.214L1031.64 257.374M1030.47 230.214L1039.85 230.079M1031.64 257.374L1039.85 257.213M1039.85 230.079V257.213M1039.85 230.079L1048.7 229.953M1039.85 257.213L1049.23 257.031M1049.23 257.031L1048.7 229.953M1049.23 257.031L1058.61 256.848M1048.7 229.953L1058.61 229.811M1058.61 229.811V256.848M1058.61 229.811L1067.99 229.677M1058.61 256.848L1067.99 256.665M1067.99 256.665V229.677M1067.99 256.665L1076.89 256.491M1067.99 229.677L1076.89 229.549M1076.89 256.491L1082.06 256.39L1084.41 229.442L1076.89 229.549M1076.89 256.491V229.549M854.558 217.036L1067.99 214.277V204.178M1067.99 204.178L1036.33 205.315M1067.99 204.178L1085.58 203.546M854.558 268.651L1065.65 265.281V257.213M795.369 284.657L796.324 393.287M795.369 284.657H801.786M838.14 312.148V284.657L846.349 284.589M838.14 312.148L812.34 310.131M838.14 312.148H846.349M853.385 319.04H1065.65V308.786M795.922 335.3H829.931V359.7H805.304M836.967 357.636L849.867 357.851M826.826 360.393L827.586 363.532H848.694V357.636M853.385 370.969L1065.65 372.799V360.393M795.922 367.767H802.959M796.324 393.287L796.689 434.829M796.324 393.287L802.297 393.321M796.324 401.746H827.586L828.079 412.774M796.324 427.937H812.541M796.689 434.829L828.758 436.207V440.342M796.689 434.829L796.786 445.856M796.907 459.641H828.758V440.342M796.907 459.641L796.786 445.856M796.907 459.641L797.089 480.317M796.324 467.911L828.758 469.29V481.696M797.186 491.345L828.758 494.101V481.696M797.186 491.345L797.089 480.317M801.786 284.657V309.169M801.786 284.657H812.949M801.786 309.169L795.145 308.786L812.34 310.131M801.786 309.169L822.895 310.389M812.34 310.131L812.949 284.657M812.949 284.657H822.895M822.895 284.657H829.931V310.795L822.895 310.389M822.895 284.657V310.389M818.204 335.581L819.377 360.096M819.377 360.096L795.922 359.7H805.304M819.377 360.096L836.967 360.393L838.14 334.203L849.867 334.334M805.304 359.7L804.131 335.581M802.959 367.767H828.758L829.931 393.476L819.377 393.416M802.959 367.767L802.297 393.321M802.297 393.321L819.377 393.416M819.377 393.416V367.285M849.867 334.334V357.851M849.867 334.334L875.182 334.616M849.867 357.851L861.594 358.046M861.594 335.3V358.046M861.594 358.046L876.84 358.3M876.84 358.3L875.182 334.616M876.84 358.3L890.39 358.525M875.182 334.616L890.39 334.785M890.39 334.785V358.525M890.39 334.785L906.157 334.961M890.39 358.525L906.798 358.798M906.798 358.798L906.157 334.961M906.798 358.798L924.921 359.099M906.157 334.961L922.575 335.144M922.575 335.144L924.921 359.099M922.575 335.144L933.13 335.261M924.921 359.099L935.994 359.284M933.13 335.261L935.994 359.284M933.13 335.261L944.359 335.386M935.994 359.284L960.102 359.684M946.03 359.099L944.359 335.386M944.359 335.386L958.93 335.549M958.93 335.549L960.102 359.684M958.93 335.549L971.196 335.685M960.102 359.684L972.55 359.892M972.55 359.892L971.196 335.685M972.55 359.892L984.729 360.094M971.196 335.685L983.557 335.823M983.557 335.823L984.729 360.094M983.557 335.823L992.938 335.928M984.729 360.094L994.638 360.259M994.638 360.259L992.938 335.928M994.638 360.259L1005.84 360.445M992.938 335.928L1004.21 336.053M1004.21 336.053L1005.84 360.445M1004.21 336.053L1015.71 336.181M1005.84 360.445L1017.57 360.64M1017.57 360.64L1015.71 336.181M1017.57 360.64L1048.06 361.147M1015.71 336.181L1045.71 336.516M1031.64 335.823L1032.81 361.772L1048.06 361.147M1048.06 361.147L1045.71 336.516M1048.06 361.147L1059.78 361.343M1045.71 336.516L1057.98 336.652M1059.78 361.343L1057.98 336.652M1059.78 361.343L1073.86 361.577M1057.98 336.652L1070.34 336.79M1070.34 336.79L1085.58 336.96V361.772L1073.86 361.577M1070.34 336.79L1073.86 361.577M795.922 412.774H812.001M828.079 412.774L828.758 427.937H812.541M828.079 412.774H812.001M812.541 427.937L812.001 412.774M796.786 445.856H804.131L802.297 438.964L812.949 440.342L813.301 445.856L818.204 446.273L819.377 440.342H828.758M797.089 480.317L828.758 481.696M846.349 312.148H851.04V306.739L859.249 306.813M846.349 312.148V284.589M846.349 284.589L869.803 284.396M859.249 283.201V306.813M859.249 306.813L868.631 306.899M869.803 284.396L868.631 306.899M869.803 284.396L881.53 284.299M868.631 306.899L881.53 307.016M881.53 307.016V284.299M881.53 307.016L893.258 307.123M881.53 284.299L894.43 284.192M894.43 284.192L893.258 307.123M894.43 284.192L921.403 283.97M893.258 307.123L907.252 307.25M907.252 307.25L906.798 284.657L921.403 283.97M907.252 307.25L921.403 307.379M921.403 283.97V307.379M921.403 283.97L935.052 283.857M921.403 307.379L935.994 307.512M935.052 283.857L935.994 307.512M935.052 283.857L948.958 283.742M935.994 307.512L948.958 307.63M948.958 307.63V283.742M948.958 307.63L976.52 307.881M948.958 283.742L961.275 283.641M961.275 283.641L962.448 308.522M961.275 283.641L975.348 283.525M975.348 283.525L976.52 307.881M975.348 283.525L995.284 283.36M976.52 307.881L995.284 308.052M995.284 308.052V283.36M995.284 308.052L1016.39 308.244M995.284 283.36L1016.39 283.186M1016.39 283.186V308.244M1016.39 283.186L1039.29 282.997M1016.39 308.244L1039.85 308.457M1039.85 308.457L1039.29 282.997M1039.85 308.457L1058.61 308.628M1039.29 282.997L1058.61 282.837M1058.61 282.837V308.628M1058.61 282.837L1072.68 282.721M1058.61 308.628L1073.86 308.767M1073.86 308.767L1084.41 308.863V282.624L1072.68 282.721M1073.86 308.767L1072.68 282.721M848.694 400.802L838.14 401.746L836.967 426.472L851.04 430.797M848.694 400.802L849.867 393.287M848.694 400.802L1067.99 404.503M849.867 393.287L851.04 430.797M849.867 393.287L879.185 393.881M1071.51 434.829H1085.58L1084.41 405.882L1067.99 407.26V404.503M1071.51 434.829L1065.65 444.478L851.04 437.671M1071.51 434.829L1057.44 434.571M851.04 430.797L867.454 431.097M859.249 394.553V430.797L867.454 431.097M867.454 431.097V393.476M867.454 431.097L879.185 431.311M879.185 431.311V393.881M879.185 431.311L904.985 431.783M879.185 393.881L891.388 394.128M891.388 394.128V430.797L904.985 431.783M891.388 394.128L902.639 394.356M904.985 431.783L902.639 394.356M904.985 431.783L910.63 431.887M902.639 394.356L910.63 394.518M918.622 432.033V394.68M918.622 432.033L910.63 431.887M918.622 432.033L928.439 432.212M918.622 394.68L910.63 394.518M918.622 394.68L928.439 394.879M910.63 394.518V431.887M928.439 432.212V394.879M928.439 432.212L937.821 432.384M928.439 394.879L937.821 395.069M937.821 395.069V432.384M937.821 395.069L950.721 395.33M937.821 432.384L950.721 432.62M950.721 432.62V395.33M950.721 432.62L988.247 433.306M950.721 395.33L963.62 395.592M963.62 395.592L964.793 433.45L976.52 432.212L975.348 396.873M963.62 395.592L985.258 396.03M988.247 433.306L985.258 396.03M988.247 433.306L999.975 433.52M985.258 396.03L998.802 396.304M999.975 433.52L998.802 396.304M999.975 433.52L1008.78 433.682M998.802 396.304L1006.84 396.467M1016.39 434.829L1014.87 396.63M1014.87 396.63L1006.84 396.467M1014.87 396.63L1056.85 397.48M1008.78 433.682L1006.84 396.467M1008.78 433.682L1029.29 434.057M1029.29 434.057L1026.95 397.611L1042.19 398.989L1041.72 434.284M1029.29 434.057L1041.72 434.284M1041.72 434.284L1057.44 434.571M1057.44 434.571L1056.85 397.48M1056.85 397.48L1063.3 397.611L1062.13 385.205H1067.99V404.503M851.04 473.425L836.967 470.722V482.412M851.04 473.425L850.562 482.412M851.04 473.425L850.454 466.533M849.867 495.48L836.967 494.101V482.412M849.867 495.48L859.249 499.615L860.422 499.655M849.867 495.48L850.562 482.412M1064.47 514.778L1062.13 506.507L1056.01 506.3M1064.47 514.778L1068.58 509.953M1064.47 514.778L852.138 503.751M1067.99 477.923L1084.41 476.182L1085.58 503.751L1072.68 505.129L1068.58 509.953M1067.99 477.923L1062.13 466.533L1056.85 466.361M1067.99 477.923L1068.58 509.953M836.967 482.412H850.562M861.594 460.021L849.867 459.641L850.454 466.533M861.594 460.021L860.422 499.655M861.594 460.021L873.321 460.402M860.422 499.655L873.321 500.093M873.321 500.093V460.402M873.321 500.093L891.388 500.707M873.321 460.402L892.305 461.019M892.305 461.019L891.388 500.707M892.305 461.019L906.157 461.468M891.388 500.707L906.157 501.209M906.157 501.209V461.468M906.157 501.209L937.821 502.284M906.157 461.468L922.575 462.001M922.575 502.372V462.001M922.575 462.001L937.821 462.496M937.821 462.496V502.284M937.821 462.496L953.066 462.991M937.821 502.284L953.066 502.802M953.066 502.802V462.991M953.066 502.802L962.448 503.121M953.066 462.991L971.196 463.58M963.62 462.496L962.448 503.121M962.448 503.121L971.196 503.418M971.196 503.418V463.58M971.196 503.418L980.977 503.751M971.196 463.58L980.038 463.867M980.038 463.867L980.977 503.751M980.038 463.867L990.593 464.21M980.977 503.751L990.593 504.077M990.593 504.077V464.21M990.593 504.077L999.975 504.396M990.593 464.21L998.802 464.477M998.802 464.477L999.975 504.396M998.802 464.477L1016.39 465.048M999.975 504.396L1016.39 504.954M1016.39 465.048V504.954M1016.39 465.048L1030.47 465.505M1016.39 504.954L1030.47 505.432M1044.54 505.91V465.962M1044.54 505.91L1030.47 505.432M1044.54 505.91L1056.01 506.3M1044.54 465.962L1030.47 465.505M1044.54 465.962L1056.85 466.361M850.454 466.533L1064.47 472.2M1030.47 505.432V465.505M1056.01 506.3L1056.85 466.361M888.179 524.245L931.957 540.968H965.966L994.111 549.239L1003.49 532.698L1019.91 549.239L1058.61 553.374L1082.06 549.239L1089.66 531.39M888.179 524.245L983.557 527.184H1019.91L1025.62 521.67L1039.85 530.027L1089.66 531.39M1093.79 370.042V383.761M1093.79 370.042L1104.35 370.43M1093.79 370.042V349.366M1093.79 397.48V407.26M1093.79 397.48V383.761M1093.79 397.48L1104.35 397.918M1093.79 407.26V422.423M1093.79 407.26L1100.83 407.536M1093.79 433.682V443.099M1093.79 433.682V422.423M1093.79 433.682L1100.83 433.911M1093.79 443.099V459.641M1093.79 443.099H1100.83M1093.79 469.29V477.923M1093.79 469.29V459.641M1093.79 469.29H1100.83M1093.79 477.923V490.522M1093.79 477.923L1100.83 478.127M1093.79 503.121V490.522M1093.79 503.121L1100.83 503.376M1106.69 530.027L1114.9 523.049L1113.73 513.4H1127.8L1126.63 518.913L1112.56 535.455V549.239M1093.79 383.761H1130.79M1130.79 383.761L1131.32 371.421L1119.59 370.99M1130.79 383.761L1130.15 398.989L1119.59 398.551M1093.79 422.423H1127.8M1093.79 459.641L1130.15 461.019M1130.15 461.019V443.099H1120.76M1130.15 461.019V469.29H1121.2M1093.79 490.522L1128.97 491.667M1128.97 491.667V478.939L1114.9 478.533M1128.97 491.667V504.396L1114.9 503.886M1104.35 370.43V397.918M1104.35 370.43L1119.59 370.99M1104.35 397.918L1119.59 398.551M1119.59 370.99V398.551M1100.83 407.536V433.911M1100.83 407.536L1112.56 407.995M1100.83 433.911L1112.26 434.284M1112.56 407.995L1112.26 434.284M1112.56 407.995L1121.94 408.363M1112.26 434.284L1121.94 434.599M1121.94 434.599L1128.97 434.829V408.638L1121.94 408.363M1121.94 434.599V408.363M1100.83 443.099V469.29M1100.83 443.099H1112.26M1100.83 469.29H1112.26M1112.26 469.29V443.099M1112.26 469.29H1121.2M1112.26 443.099H1120.76M1121.2 469.29L1120.76 443.099M1100.83 478.127V503.376M1100.83 478.127L1114.9 478.533M1100.83 503.376L1114.9 503.886M1114.9 503.886V478.533M923.907 200.495H936.648L940.166 204.63L973.002 204.178L974.175 197.738H991.766L1025.77 196.359L1036.33 205.315M1060.96 61.2727L1069.16 51.6237H1083.24L1085.26 63.2215M1109.62 64.0296L1085.58 65.0899L1085.26 63.2215M1172.36 215.658L1171.19 226.685L1133.66 225.307M1172.36 215.658L1178.23 226.685H1212.24L1216.93 234.956L1212.24 243.226H1188.78M1133.66 225.307L1131.32 146.736M1133.66 225.307C1126.63 225.766 1112.56 226.409 1112.56 225.307C1112.56 223.928 1112.56 200.495 1112.56 199.116C1112.56 198.014 1114.9 176.842 1116.07 166.394L1130.85 150.871M1131.32 146.736L1140.7 155.006L1144.22 225.307M1131.32 146.736L1130.85 142.6M1114.36 126.059L1114.34 128.816H1085.58L1077.37 129.092M1114.36 126.059H1128.97L1130.85 142.6M1114.36 126.059L1114.9 141.222H1086.76M1114.36 126.059L1114.39 123.302M1127.8 53.0021L1159.46 51.6237M1128.97 83.3277L1159.46 84.7061M1128.97 108.14L1158.29 110.896M1145.39 138.465H1161.81M1147.74 174.436H1165.33M1148.91 203.252H1165.33M1130.85 142.6L1114.9 149.493L1105.52 164.101V171.548M1112.56 243.226L1111.38 261.146M1112.56 243.226H1188.78M1112.56 243.226L1111.82 241.848M1093.79 282.721V203.252L1085.58 203.546M1093.79 282.721L1111.38 261.146M1093.79 282.721V306.634M1093.79 282.721L1119.59 282.624L1120.76 298.364L1130.65 299.954M1111.38 261.146L1100.83 241.848H1111.82M1085.58 203.546L1105.52 188.089M1105.52 188.089V229.953L1111.82 241.848M1105.52 188.089V176.095M1073.86 203.546L1105.52 176.095M1105.52 176.095V171.548M1077.96 168.101L1089.07 171.548H1105.52M1212.24 68.1649L1211.06 53.0021L1199.34 64.0296H1188.78L1187.61 81.9493L1196.99 83.3277L1212.24 68.1649ZM1212.24 68.1649L1232.17 69.5433L1227.48 87.463L1229.67 97.112M1216.93 97.112L1204.03 90.2199L1195.82 98.4905L1182.92 99.8689L1184.09 117.789L1205.2 118.644M1216.93 97.112L1217.66 110.896M1216.93 97.112H1229.67M1139.53 532.698H1140.7M1144.22 532.698L1143.05 514.778L2135.44 489.966M1144.22 532.698H1167.67L1172.36 539.59L1535.91 529.715M1144.22 532.698H1140.7M2135.44 489.966C2137.33 487.445 2139.88 497.44 2141.03 492.723C2143.37 483.074 2148.06 484.452 2148.06 494.101C2148.06 501.821 2152.75 488.588 2155.1 487.209C2160.18 487.209 2171.05 487.761 2173.86 489.966C2177.38 492.723 2178.55 496.858 2179.73 500.994C2180.66 504.302 2182.46 517.994 2183.24 524.427C2187.93 530.4 2198.49 542.347 2203.18 542.347C2209.04 542.347 2218.42 542.347 2223.12 542.347C2227.81 542.347 2241.88 545.104 2246.57 547.86C2250.32 550.066 2255.95 550.617 2258.3 550.617L2266.51 542.347L2275.89 527.184C2278.23 530.86 2283.63 539.038 2286.44 542.347C2289.96 546.482 2298.17 553.374 2301.69 554.753C2305.21 556.131 2312.24 553.374 2313.41 550.617C2314.59 547.86 2319.28 542.347 2319.28 535.455C2319.28 528.562 2319.28 521.67 2319.28 516.156C2319.28 514.212 2319.28 511.124 2319.28 507.886M2135.44 489.966C2133.46 492.602 2132.19 495.357 2133.99 500.994C2136.1 507.61 2135.68 510.753 2136.52 513.4M2136.52 513.4L1535.91 529.715M1139.53 557.51L1140.7 532.698M1139.53 557.51V575.179M1139.53 557.51H1177.05L1178.23 550.617L1192.3 551.996L1399.87 543.725H1528.87L1535.91 529.715M1139.53 575.179L1153.6 569.915H1174.71H1196.99L1226.31 557.51V565.78M2496.3 421.044L2414.27 422.423L2413.1 401.746L2495.42 400.368M2496.3 421.044L2495.42 400.368M2339.8 503.751L2338.04 496.858L2331.01 484.452L2319.28 496.858C2319.28 499.428 2319.28 503.778 2319.28 507.886M2339.8 503.751L2479.94 502.372V477.928L2331.01 483.074L2183.24 485.831L2192.63 513.4L2319.28 507.886M1735.27 584.65C1732.89 586.062 1730.09 589.101 1729.4 594.727C1728.98 598.236 1728.7 601.563 1728.36 604.376M1612.13 611.958L1621.51 623.674L1643.79 626.431C1650.83 624.593 1667.01 620.366 1675.46 618.161C1686.01 615.404 1697.74 612.647 1703.6 612.647C1709.47 612.647 1721.19 612.647 1724.71 612.647C1726.95 612.647 1727.76 609.298 1728.36 604.376M1612.13 611.958L1728.36 604.376M1758.72 599.089C1767.11 604.097 1777.91 609.89 1782.18 609.89C1789.21 609.89 1800.94 612.647 1804.46 612.647C1807.97 612.647 1825.57 609.89 1834.95 609.89C1844.33 609.89 1859.57 604.376 1861.92 600.241C1862.36 599.462 1862.86 598.514 1863.37 597.484M1758.72 599.089L1863.37 597.484M1226.31 565.78V589.214L1229.69 594.727M1226.31 565.78L1316.61 563.023V591.97L1229.69 594.727M1229.69 594.727L1234.75 602.998M1234.75 602.998L1247.42 623.674L1274.39 631.945L1306.05 623.674L1316.28 600.241M1234.75 602.998L1316.28 600.241M2396.68 122.613L2375.57 130.195L2427.17 128.957M2396.68 122.613L2426 124.681L2427.17 128.957M2196.14 367.285H2210.22M2196.14 367.285H1999.13M2210.22 367.285V352.123H2234.84L2239.53 296.985L2224.29 283.201L2217.25 272.173L2221.94 263.903H2239.53L2238.36 254.254H2234.84L2236.02 115.032M2236.02 115.032L2185.59 117.789M1976.85 367.285V361.772L1985.05 357.636L1978.02 335.581H1990.92L1979.19 308.013L1976.85 274.93L1983.88 276.309L2015.55 277.687V291.471L2021.41 292.85V303.877L2016.72 316.283L2023.75 317.662L2022.58 330.068L2015.55 334.203L2016.72 345.23L2004.99 352.123L2000.3 359.015L1999.13 367.285M1976.85 367.285H1999.13M1976.85 367.285H1196.99M1446.78 77.814L1483.13 80.5708M1450.3 108.14L1483.13 110.896M1472.58 138.465H1486.65M1476.1 167.412C1475.16 167.412 1482.74 168.331 1486.65 168.791M1477.27 194.981H1484.31M1477.27 219.793H1484.31M1578.12 110.896H1592.2M1580.47 138.465H1592.2M1581.64 155.006H1594.54M1727.06 101.247L1762.24 105.383M1729.4 135.708L1759.89 142.6M1737.61 164.655L1759.89 171.548M1752.86 207.387L1764.58 212.901M1979.19 120.545L2006.16 123.302M1979.19 152.249L2002.65 160.52M1999.13 190.846L2008.51 193.603M1999.13 214.279L2008.51 222.55M1999.13 241.848L2010.85 243.226M2196.14 135.708L2224.29 139.844M2197.32 164.655L2224.29 174.304M2212.56 204.63L2224.29 210.144M2216.08 232.199L2226.63 236.334M2393.16 153.628L2420.13 161.899M2393.16 192.224L2418.96 201.873M2390.81 230.82L2421.3 244.605M2406.06 287.336H2422.48M2409.58 319.04H2421.3M1093.79 349.366H1130.15L1130.79 303.877L1130.65 299.954M1093.79 349.366V335.823M1168.85 296.985L1161.81 298.364V327.311L1166.5 341.095L1167.49 352.123M1168.85 296.985L1175.88 297.303M1168.85 296.985L1170.19 274.93M1168.85 367.285H1137.18M1168.85 367.285L1167.49 352.123M1168.85 367.285H1177.05M1137.18 367.285V328.689H1161.81M1257.97 287.336L1260.32 301.121L1234.52 299.954M1257.97 287.336L1265.01 279.066L1260.9 274.241M1257.97 287.336H1234.14M1283.77 243.226L1257.97 245.983L1257.01 265.281M1283.77 243.226L1282.6 229.442M1283.77 243.226H1322.47H1408.08V265.281H1396.35M1282.6 229.442L1261.49 226.685L1255.63 217.036M1282.6 229.442L1390.49 223.928L1388.14 214.277L1255.63 217.036M1255.63 217.036L1255.82 206.008M1275.43 148.114L1274.39 105.383L1259.14 99.8689L1260.32 37.8393H1253.28L1240.38 30.9471L1229.83 24.055L1214.58 22.6765L1209.89 6.13531L1198.75 4.97985M1275.43 148.114L1275.56 153.628C1279.08 150.871 1286.12 145.082 1286.12 143.979C1286.12 143.169 1286.54 120.981 1286.92 101.247M1275.43 148.114L1256.8 150.871L1256.43 171.548M1217.66 110.896L1218.1 119.167L1205.2 118.644M1217.66 110.896L1232.17 108.14L1229.67 97.112M1154.35 18.5412L1154.77 13.0275L1170.02 2L1187.61 3.8244M1154.35 18.5412L1171.19 21.2981L1173.54 30.9471H1199.34M1199.34 30.9471L1187.61 3.8244M1199.34 30.9471L1204.03 36.4609M1187.61 3.8244L1198.75 4.97985M1204.03 36.4609L1206.37 22.6765L1198.75 4.97985M1204.03 36.4609H1216.93L1220.44 40.5962L1241.55 35.8701M1245.07 35.0825L1241.55 35.8701M1201.68 173.681L1228.65 203.252L1232.17 203.609M1255.82 206.008L1232.17 203.609M1255.82 206.008L1255.97 197.738M1205.2 118.644L1206.37 131.573L1218.1 141.222L1212.24 146.736L1240.38 160.52L1239.21 171.548L1256.39 173.681M1256.39 173.681L1256.43 171.548M1256.39 173.681L1256.18 185.709M1188.78 243.226V256.39M1188.78 297.886L1234.52 299.954M1188.78 297.886L1175.88 297.303M1188.78 297.886V285.958M1188.78 256.39L1233.34 261.146M1188.78 256.39V268.038M1233.34 261.146L1232.17 203.609M1233.34 261.146L1257.97 262.524M1233.34 261.146L1234.14 287.336M1234.52 299.954L1234.22 290.093M1093.79 306.634L1119.59 308.244V335.823H1093.79M1093.79 306.634V335.823M1364.69 308.244V308.863M1364.69 308.863V319.04L1194.65 313.526V306.634L1364.69 308.863ZM1167.49 352.123L1175.88 327.311V297.303M1138.35 255.173L1128.97 254.254L1130.65 299.954M1138.35 255.173V276.309L1170.19 274.93M1138.35 255.173L1151.82 256.491M1170.19 274.93L1171.19 258.389L1151.82 256.491M1151.82 256.491L1152.43 274.93M1114.39 123.302H1094.96L1089.07 94.3552L1073.86 95.7336L1062.13 105.383L1051.57 106.761L1049.23 90.2199L1063.3 86.0846L1072.68 73.6786L1077.37 64.0296L1085.26 63.2215M1048.06 130.076V121.924L1069.16 115.032L1077.37 123.302V129.092M1048.06 130.076L1077.37 129.092M1177.05 367.285L1178.23 349.366H1185.26M1177.05 367.285H1187.02M1198.95 327.311L1198.16 321.797L1201.68 320.419L1344.75 324.554H1525.35L1528.87 334.203H1483.13L1409.25 331.446L1351.79 330.068L1212.24 328.689L1199.34 330.068L1198.95 327.311ZM1198.95 327.311L1190.62 328.689V349.366H1185.26M1196.99 367.285L1195.82 350.744M1196.99 367.285H1187.02M1187.02 367.285L1185.26 349.366M1241.55 35.8701L1245.07 172.926M1188.78 268.038L1233.34 274.93M1188.78 268.038V285.958M1188.78 285.958L1234.22 290.093M1234.22 290.093L1234.14 287.336M1255.97 197.738L1265.01 190.846C1268.14 190.846 1274.86 190.846 1276.74 190.846C1279.08 190.846 1296.67 190.846 1300.19 190.846C1303.71 190.846 1333.03 190.846 1335.37 189.467C1337.72 188.089 1354.13 188.089 1355.31 188.089C1356.48 188.089 1370.55 188.089 1372.9 188.089C1375.24 188.089 1385.8 188.089 1386.97 188.089C1387.91 188.089 1389.71 189.927 1390.49 190.846C1390.49 194.062 1390.49 200.77 1390.49 201.873C1390.49 202.976 1394.4 206.927 1396.35 208.765C1398.31 208.765 1402.68 208.765 1404.56 208.765C1406.44 208.765 1411.6 208.765 1413.94 208.765L1423.32 203.609C1423.72 201.192 1424.5 196.084 1424.5 194.981C1424.5 193.878 1422.93 192.684 1422.15 192.224H1416.29L1412.77 196.359L1399.87 194.981L1396.35 172.926L1405.73 171.548L1432.71 172.926L1429.19 188.089L1430.36 317.662L1437.4 319.04L1438.28 232.199M1255.97 197.738L1256.18 185.709M1256.43 171.548H1261.49L1389.32 168.865M1256.18 185.709L1275.43 181.197H1314.26H1344.75H1364.69L1390.49 179.818L1389.32 168.865M1389.32 168.865L1392.83 168.791L1397.52 160.52H1435.05H1443.26C1443.26 160.903 1443.26 161.377 1443.26 161.899M1443.26 161.899C1443.26 163.88 1443.26 166.539 1443.26 167.412C1443.26 168.515 1440.13 191.765 1438.57 203.252L1438.28 232.199M1443.26 161.899L1451.47 160.52L1454.99 172.926C1453.42 174.764 1450.3 178.715 1450.3 179.818C1450.3 181.197 1450.3 211.518 1450.3 214.277C1450.3 217.036 1449.12 230.82 1449.12 233.577C1449.12 235.783 1453.82 239.091 1456.16 240.469H1474.92L1524.18 239.091H1532.39L1533.56 247.362C1531.61 247.821 1527.7 249.016 1527.7 250.118C1527.7 251.497 1504.24 248.74 1501.9 250.118C1499.55 251.497 1479.61 250.118 1478.44 250.118C1477.27 250.118 1464.37 250.118 1462.02 250.118C1459.68 250.118 1446.78 251.497 1445.61 251.497C1444.67 251.497 1440.33 238.631 1438.28 232.199M1286.92 101.247H1299.02L1297.84 150.871L1302.53 153.628L1301.36 102.626H1311.92L1309.57 156.385L1314.26 157.763L1315.43 99.8689L1321.3 101.247M1321.3 101.247L1325.99 110.896C1324.82 118.248 1322.71 133.503 1323.64 135.708C1324.58 137.914 1323.25 148.574 1322.47 153.628L1331.85 155.006L1329.51 102.626L1321.3 101.247ZM1321.3 101.247L1316.61 86.0846L1335.37 84.7061M1335.37 84.7061L1355.31 87.463L1360 148.114H1337.72L1335.37 84.7061ZM1257.01 265.281L1256.8 269.416L1260.9 274.241M1257.01 265.281H1396.35M1260.9 274.241L1396.35 274.93V265.281M624.706 164.655L641.124 163.277H651.678L668.096 166.034H676.305L677.478 172.926H664.578H655.197L654.024 177.061L661.06 178.44H671.306L677.478 179.818V183.953L673.96 186.71C671.224 186.71 665.516 186.71 664.578 186.71C663.64 186.71 658.715 186.71 656.369 186.71L651.678 183.953L646.988 186.71H641.124L634.088 185.332L627.051 189.467C624.706 189.514 619.898 189.732 619.429 190.227C618.842 190.846 614.152 189.467 612.979 189.467C612.041 189.467 608.679 185.791 607.115 183.953V178.44L609.461 175.683L615.324 178.44L618.842 181.197L627.051 178.44L632.915 177.061C635.651 177.061 641.359 177.061 642.297 177.061C643.235 177.061 647.379 177.061 649.333 177.061L650.506 172.926L628.224 171.548L623.533 174.304L624.706 164.655ZM1178.23 145.357H1184.09V131.573L1192.3 132.951L1191.13 148.114V206.008H1184.09L1182.92 200.495L1175.88 206.008V146.736L1178.23 145.357ZM1140.7 390.719H1144.22V372.799H1161.81L2403.71 376.934V394.854L1161.81 400.368L1140.7 397.611V390.719ZM1161.81 434.829H1140.7V410.017L1161.81 408.638L2406.06 401.746V422.423L1161.81 434.829ZM1139.53 463.776L1144.22 462.397V443.099L2472.9 429.315V452.748L1161.81 469.29H1140.7L1139.53 463.776ZM1140.7 478.939H1161.81L2470.56 455.505L2471.73 473.425L1160.64 504.396H1140.7V478.939ZM1394.01 556.131L1531.21 551.996L2107.02 523.049V564.402L1331.85 587.835L1329.51 556.131H1394.01Z" stroke="url(#paint0_linear_92_4)" stroke-width="3"/>
<defs>
<linearGradient id="paint0_linear_92_4" x1="2" y1="328" x2="2512.78" y2="328" gradientUnits="userSpaceOnUse">
<stop stop-color="#4E5561"/>
<stop offset="1" stop-color="#00FFEA"/>
</linearGradient>
</defs>
</svg>
